<svg xmlns="http://www.w3.org/2000/svg" width="24.12" height="22.49" viewBox="0 0 24.12 22.49">
  <defs>
    <style>
      .cls-1, .cls-2 {
        fill: none;
      }

      .cls-1 {
        stroke: #f04a51;
        stroke-miterlimit: 10;
      }
    </style>
  </defs>
  <g>
    <g>
      <path id="path3102-53" class="cls-1" d="M24.11,1.67l-.61,0a11.53,11.53,0,0,0-2.59.5c-.51.15-.9.32-1.32.48s-1.45.59-1.45.59h0l-.89.36c-.34.14-.64.28-1,.41s-.53.19-.84.28a11,11,0,0,1-1.58.42,11,11,0,0,1-1.78.18,11.15,11.15,0,0,1-1.66-.14,7.12,7.12,0,0,1-.86-.19c-.37-.09-.71-.19-1-.29S7.72,4,7.33,3.81c-.83-.33-1.58-.67-2.42-1A17.35,17.35,0,0,0,3.2,2.19a12.37,12.37,0,0,0-2-.45A11.17,11.17,0,0,0,0,1.66"/>
      <path id="path3102-53-2" data-name="path3102-53" class="cls-1" d="M24.11,4.9l-.61,0a11.53,11.53,0,0,0-2.59.5c-.51.15-.9.32-1.32.48s-1.45.59-1.45.59h0l-.89.36c-.34.14-.64.28-1,.41s-.53.19-.84.28A11,11,0,0,1,13.85,8a11,11,0,0,1-1.78.18A11.15,11.15,0,0,1,10.41,8a7.12,7.12,0,0,1-.86-.19c-.37-.09-.71-.19-1-.29S7.72,7.21,7.33,7c-.83-.33-1.58-.67-2.42-1A17.35,17.35,0,0,0,3.2,5.43a12.37,12.37,0,0,0-2-.45A11.17,11.17,0,0,0,0,4.9"/>
      <path id="path3102-53-3" data-name="path3102-53" class="cls-1" d="M24.11,8.14l-.61,0a11.53,11.53,0,0,0-2.59.5c-.51.15-.9.32-1.32.48s-1.45.59-1.45.59h0l-.89.36c-.34.14-.64.28-1,.41s-.53.19-.84.28a11,11,0,0,1-1.58.42,11,11,0,0,1-1.78.18,11.15,11.15,0,0,1-1.66-.14A7.12,7.12,0,0,1,9.55,11c-.37-.09-.71-.19-1-.29s-.82-.31-1.21-.47c-.83-.33-1.58-.67-2.42-1A17.35,17.35,0,0,0,3.2,8.67a12.37,12.37,0,0,0-2-.45A11.17,11.17,0,0,0,0,8.14"/>
      <path id="path3102-53-4" data-name="path3102-53" class="cls-1" d="M24.11,11.37l-.61,0a11.53,11.53,0,0,0-2.59.5c-.51.15-.9.32-1.32.48s-1.45.59-1.45.59h0l-.89.36c-.34.14-.64.28-1,.41s-.53.19-.84.28a10.89,10.89,0,0,1-3.35.6,11.15,11.15,0,0,1-1.66-.14,7.12,7.12,0,0,1-.86-.19c-.37-.09-.71-.19-1-.29s-.82-.31-1.21-.47c-.83-.33-1.58-.67-2.42-1A17.35,17.35,0,0,0,3.2,11.9a12.37,12.37,0,0,0-2-.45A11.17,11.17,0,0,0,0,11.37"/>
      <path id="path3102-53-5" data-name="path3102-53" class="cls-1" d="M24.11,14.61l-.61,0a11.53,11.53,0,0,0-2.59.5c-.51.15-.9.32-1.32.48s-1.45.59-1.45.59h0l-.89.36c-.34.14-.64.28-1,.41s-.53.19-.84.28a10.89,10.89,0,0,1-3.35.6,11.15,11.15,0,0,1-1.66-.14,7.12,7.12,0,0,1-.86-.19c-.37-.09-.71-.19-1-.29s-.82-.31-1.21-.47c-.83-.33-1.58-.67-2.42-1a17.35,17.35,0,0,0-1.71-.63,12.37,12.37,0,0,0-2-.45A11.17,11.17,0,0,0,0,14.61"/>
      <path id="path3102-53-6" data-name="path3102-53" class="cls-1" d="M24.11,17.85l-.61,0a11.53,11.53,0,0,0-2.59.5c-.51.15-.9.32-1.32.48s-1.45.59-1.45.59h0l-.89.36c-.34.14-.64.28-1,.41s-.53.19-.84.28a10.89,10.89,0,0,1-3.35.6,11.15,11.15,0,0,1-1.66-.14,7.12,7.12,0,0,1-.86-.19c-.37-.09-.71-.19-1-.29s-.82-.31-1.21-.47c-.83-.33-1.58-.67-2.42-1a17.35,17.35,0,0,0-1.71-.63,12.37,12.37,0,0,0-2-.45A11.17,11.17,0,0,0,0,17.85"/>
      <rect class="cls-2" x="0.01" width="24.1" height="22.49"/>
    </g>
  </g>
</svg>
