<svg xmlns="http://www.w3.org/2000/svg" width="760.31" height="3.92" viewBox="0 0 760.31 3.92">
  <defs>
    <style>
      .cls-1 {
        fill: none;
        stroke: #5ca0aa;
        stroke-miterlimit: 10;
      }
    </style>
  </defs>
  <title>squigglypath3102-53</title>
  <g id="Layer_2" data-name="Layer 2">
    <g id="Layer_1-2" data-name="Layer 1">
      <path id="path3102-53" class="cls-1" d="M760.1,1.93l-.69.32c-.26.12-.49.25-.77.37s-.41.17-.65.26a7.57,7.57,0,0,1-1.22.38,7.34,7.34,0,0,1-1.37.16,7.4,7.4,0,0,1-1.28-.12,4.83,4.83,0,0,1-.66-.17c-.28-.08-.55-.17-.78-.26s-.63-.28-.94-.42c-.64-.3-1.22-.6-1.87-.9A12.22,12.22,0,0,0,748.56,1,8.4,8.4,0,0,0,747,.57,7.4,7.4,0,0,0,746.1.5l-.47,0a7.9,7.9,0,0,0-.95.14,8,8,0,0,0-1.05.31c-.39.14-.69.29-1,.43l-1.12.53h0l-.69.32c-.26.12-.49.25-.77.37s-.41.17-.65.26a7.57,7.57,0,0,1-1.22.38,7.34,7.34,0,0,1-1.37.16,7.4,7.4,0,0,1-1.28-.12,4.83,4.83,0,0,1-.66-.17c-.28-.08-.55-.17-.78-.26s-.63-.28-.94-.42c-.64-.3-1.22-.6-1.87-.9A12.22,12.22,0,0,0,729.94,1a8.4,8.4,0,0,0-1.54-.41,7.4,7.4,0,0,0-.93-.07l-.47,0a7.9,7.9,0,0,0-.95.14A8,8,0,0,0,725,1c-.39.14-.69.29-1,.43l-1.12.53h0l-.69.32c-.26.12-.49.25-.77.37s-.41.17-.65.26a7.57,7.57,0,0,1-1.22.38,7.34,7.34,0,0,1-1.37.16,7.4,7.4,0,0,1-1.28-.12,4.83,4.83,0,0,1-.66-.17c-.28-.08-.55-.17-.78-.26s-.63-.28-.94-.42c-.64-.3-1.22-.6-1.87-.9A12.22,12.22,0,0,0,711.33,1a8.4,8.4,0,0,0-1.54-.41,7.4,7.4,0,0,0-.93-.07l-.47,0a7.9,7.9,0,0,0-.95.14,8,8,0,0,0-1.05.31c-.39.14-.69.29-1,.43l-1.12.53h0l-.69.32c-.26.12-.49.25-.77.37s-.41.17-.65.26a7.57,7.57,0,0,1-1.22.38,7.34,7.34,0,0,1-1.37.16,7.4,7.4,0,0,1-1.28-.12,4.83,4.83,0,0,1-.66-.17c-.28-.08-.55-.17-.78-.26s-.63-.28-.94-.42c-.64-.3-1.22-.6-1.87-.9A12.22,12.22,0,0,0,692.71,1a8.4,8.4,0,0,0-1.54-.41,7.4,7.4,0,0,0-.93-.07l-.47,0a7.9,7.9,0,0,0-.95.14,8,8,0,0,0-1.05.31c-.39.14-.69.29-1,.43l-1.12.53h0l-.69.32c-.26.12-.49.25-.77.37s-.41.17-.65.26a7.57,7.57,0,0,1-1.22.38,7.34,7.34,0,0,1-1.37.16,7.4,7.4,0,0,1-1.28-.12,4.83,4.83,0,0,1-.66-.17c-.28-.08-.55-.17-.78-.26s-.63-.28-.94-.42c-.64-.3-1.22-.6-1.87-.9A12.22,12.22,0,0,0,674.1,1a8.4,8.4,0,0,0-1.54-.41,7.4,7.4,0,0,0-.93-.07l-.47,0a7.9,7.9,0,0,0-.95.14,8,8,0,0,0-1.05.31c-.39.14-.69.29-1,.43L667,1.93h0l-.69.32c-.26.12-.49.25-.77.37s-.41.17-.65.26a7.57,7.57,0,0,1-1.22.38,7.34,7.34,0,0,1-1.37.16,7.4,7.4,0,0,1-1.28-.12,4.83,4.83,0,0,1-.66-.17c-.28-.08-.55-.17-.78-.26s-.63-.28-.94-.42c-.64-.3-1.22-.6-1.87-.9A12.22,12.22,0,0,0,655.48,1a8.4,8.4,0,0,0-1.54-.41A7.4,7.4,0,0,0,653,.5l-.47,0a7.9,7.9,0,0,0-.95.14,8,8,0,0,0-1.05.31c-.39.14-.69.29-1,.43l-1.12.53h0l-.69.32c-.26.12-.49.25-.77.37s-.41.17-.65.26a7.57,7.57,0,0,1-1.22.38,7.34,7.34,0,0,1-1.37.16,7.4,7.4,0,0,1-1.28-.12,4.83,4.83,0,0,1-.66-.17c-.28-.08-.55-.17-.78-.26s-.63-.28-.94-.42c-.64-.3-1.22-.6-1.87-.9A12.22,12.22,0,0,0,636.87,1a8.4,8.4,0,0,0-1.54-.41,7.4,7.4,0,0,0-.93-.07l-.47,0a7.9,7.9,0,0,0-.95.14,8,8,0,0,0-1.05.31c-.39.14-.69.29-1,.43l-1.12.53h0l-.69.32c-.26.12-.49.25-.77.37s-.41.17-.65.26a7.57,7.57,0,0,1-1.22.38,7.34,7.34,0,0,1-1.37.16,7.4,7.4,0,0,1-1.28-.12,4.83,4.83,0,0,1-.66-.17c-.28-.08-.55-.17-.78-.26s-.63-.28-.94-.42c-.64-.3-1.22-.6-1.87-.9A12.22,12.22,0,0,0,618.26,1a8.4,8.4,0,0,0-1.54-.41,7.4,7.4,0,0,0-.93-.07l-.47,0a7.9,7.9,0,0,0-.95.14,8,8,0,0,0-1.05.31c-.39.14-.69.29-1,.43l-1.12.53h0l-.69.32c-.26.12-.49.25-.77.37s-.41.17-.65.26a7.57,7.57,0,0,1-1.22.38,7.34,7.34,0,0,1-1.37.16,7.4,7.4,0,0,1-1.28-.12,4.83,4.83,0,0,1-.66-.17c-.28-.08-.55-.17-.78-.26s-.63-.28-.94-.42c-.64-.3-1.22-.6-1.87-.9A12.22,12.22,0,0,0,599.64,1a8.4,8.4,0,0,0-1.54-.41,7.4,7.4,0,0,0-.93-.07l-.47,0a7.9,7.9,0,0,0-.95.14,8,8,0,0,0-1.05.31c-.39.14-.69.29-1,.43l-1.12.53h0l-.69.32c-.26.12-.49.25-.77.37s-.41.17-.65.26a7.57,7.57,0,0,1-1.22.38,7.34,7.34,0,0,1-1.37.16,7.4,7.4,0,0,1-1.28-.12,4.83,4.83,0,0,1-.66-.17c-.28-.08-.55-.17-.78-.26s-.63-.28-.94-.42c-.64-.3-1.22-.6-1.87-.9A12.22,12.22,0,0,0,581,1a8.4,8.4,0,0,0-1.54-.41,7.4,7.4,0,0,0-.93-.07l-.47,0a7.9,7.9,0,0,0-.95.14A8,8,0,0,0,576.1,1c-.39.14-.69.29-1,.43L574,1.93h0l-.69.32c-.26.12-.49.25-.77.37s-.41.17-.65.26a7.57,7.57,0,0,1-1.22.38,7.34,7.34,0,0,1-1.37.16A7.4,7.4,0,0,1,568,3.3a4.83,4.83,0,0,1-.66-.17c-.28-.08-.55-.17-.78-.26s-.63-.28-.94-.42c-.64-.3-1.22-.6-1.87-.9A12.22,12.22,0,0,0,562.41,1a8.4,8.4,0,0,0-1.54-.41,7.4,7.4,0,0,0-.93-.07l-.47,0a7.9,7.9,0,0,0-.95.14,8,8,0,0,0-1.05.31c-.39.14-.69.29-1,.43l-1.12.53h0l-.69.32c-.26.12-.49.25-.77.37s-.41.17-.65.26a7.57,7.57,0,0,1-1.22.38,7.34,7.34,0,0,1-1.37.16,7.4,7.4,0,0,1-1.28-.12,4.83,4.83,0,0,1-.66-.17c-.28-.08-.55-.17-.78-.26s-.63-.28-.94-.42c-.64-.3-1.22-.6-1.87-.9A12.22,12.22,0,0,0,543.8,1a8.4,8.4,0,0,0-1.54-.41,7.4,7.4,0,0,0-.93-.07l-.47,0a7.9,7.9,0,0,0-.95.14,8,8,0,0,0-1.05.31c-.39.14-.69.29-1,.43l-1.12.53h0l-.69.32c-.26.12-.49.25-.77.37s-.41.17-.65.26a7.57,7.57,0,0,1-1.22.38,7.34,7.34,0,0,1-1.37.16,7.4,7.4,0,0,1-1.28-.12,4.83,4.83,0,0,1-.66-.17c-.28-.08-.55-.17-.78-.26s-.63-.28-.94-.42c-.64-.3-1.22-.6-1.87-.9A12.22,12.22,0,0,0,525.18,1a8.4,8.4,0,0,0-1.54-.41,7.4,7.4,0,0,0-.93-.07l-.47,0a7.9,7.9,0,0,0-.95.14,8,8,0,0,0-1.05.31c-.39.14-.69.29-1,.43l-1.12.53h0l-.69.32c-.26.12-.49.25-.77.37s-.41.17-.65.26a7.57,7.57,0,0,1-1.22.38,7.34,7.34,0,0,1-1.37.16,7.4,7.4,0,0,1-1.28-.12,4.83,4.83,0,0,1-.66-.17c-.28-.08-.55-.17-.78-.26s-.63-.28-.94-.42c-.64-.3-1.22-.6-1.87-.9A12.22,12.22,0,0,0,506.57,1,8.4,8.4,0,0,0,505,.57a7.4,7.4,0,0,0-.93-.07l-.47,0a7.9,7.9,0,0,0-.95.14,8,8,0,0,0-1.05.31c-.39.14-.69.29-1,.43l-1.12.53h0l-.69.32c-.26.12-.49.25-.77.37s-.41.17-.65.26a7.57,7.57,0,0,1-1.22.38,7.34,7.34,0,0,1-1.37.16,7.4,7.4,0,0,1-1.28-.12,4.83,4.83,0,0,1-.66-.17c-.28-.08-.55-.17-.78-.26s-.63-.28-.94-.42c-.64-.3-1.22-.6-1.87-.9A12.22,12.22,0,0,0,488,1a8.4,8.4,0,0,0-1.54-.41,7.4,7.4,0,0,0-.93-.07l-.47,0a7.9,7.9,0,0,0-.95.14A8,8,0,0,0,483,1c-.39.14-.69.29-1,.43l-1.12.53h0l-.69.32c-.26.12-.49.25-.77.37s-.41.17-.65.26a7.57,7.57,0,0,1-1.22.38,7.34,7.34,0,0,1-1.37.16,7.4,7.4,0,0,1-1.28-.12,4.83,4.83,0,0,1-.66-.17c-.28-.08-.55-.17-.78-.26s-.63-.28-.94-.42c-.64-.3-1.22-.6-1.87-.9A12.22,12.22,0,0,0,469.34,1a8.4,8.4,0,0,0-1.54-.41,7.4,7.4,0,0,0-.93-.07l-.47,0a7.9,7.9,0,0,0-.95.14,8,8,0,0,0-1.05.31c-.39.14-.69.29-1,.43l-1.12.53h0l-.69.32c-.26.12-.49.25-.77.37s-.41.17-.65.26a7.57,7.57,0,0,1-1.22.38,7.34,7.34,0,0,1-1.37.16,7.4,7.4,0,0,1-1.28-.12,4.83,4.83,0,0,1-.66-.17c-.28-.08-.55-.17-.78-.26s-.63-.28-.94-.42c-.64-.3-1.22-.6-1.87-.9A12.22,12.22,0,0,0,450.73,1a8.4,8.4,0,0,0-1.54-.41,7.4,7.4,0,0,0-.93-.07l-.47,0a7.9,7.9,0,0,0-.95.14,8,8,0,0,0-1.05.31c-.39.14-.69.29-1,.43l-1.12.53h0l-.69.32c-.26.12-.49.25-.77.37s-.41.17-.65.26a7.57,7.57,0,0,1-1.22.38,7.34,7.34,0,0,1-1.37.16,7.4,7.4,0,0,1-1.28-.12,4.83,4.83,0,0,1-.66-.17c-.28-.08-.55-.17-.78-.26s-.63-.28-.94-.42c-.64-.3-1.22-.6-1.87-.9A12.22,12.22,0,0,0,432.11,1a8.4,8.4,0,0,0-1.54-.41,7.4,7.4,0,0,0-.93-.07l-.47,0a7.9,7.9,0,0,0-.95.14,8,8,0,0,0-1.05.31c-.39.14-.69.29-1,.43L425,1.93h0l-.69.32c-.26.12-.49.25-.77.37s-.41.17-.65.26a7.57,7.57,0,0,1-1.22.38,7.34,7.34,0,0,1-1.37.16,7.4,7.4,0,0,1-1.28-.12,4.83,4.83,0,0,1-.66-.17c-.28-.08-.55-.17-.78-.26s-.63-.28-.94-.42c-.64-.3-1.22-.6-1.87-.9A12.22,12.22,0,0,0,413.5,1,8.4,8.4,0,0,0,412,.57,7.4,7.4,0,0,0,411,.5l-.47,0a7.9,7.9,0,0,0-.95.14,8,8,0,0,0-1.05.31c-.39.14-.69.29-1,.43l-1.12.53h0l-.69.32c-.26.12-.49.25-.77.37s-.41.17-.65.26a7.57,7.57,0,0,1-1.22.38,7.34,7.34,0,0,1-1.37.16,7.4,7.4,0,0,1-1.28-.12,4.83,4.83,0,0,1-.66-.17c-.28-.08-.55-.17-.78-.26s-.63-.28-.94-.42c-.64-.3-1.22-.6-1.87-.9A12.22,12.22,0,0,0,394.88,1a8.4,8.4,0,0,0-1.54-.41,7.4,7.4,0,0,0-.93-.07l-.47,0a7.9,7.9,0,0,0-.95.14,8,8,0,0,0-1.05.31c-.39.14-.69.29-1,.43l-1.12.53h0l-.69.32c-.26.12-.49.25-.77.37s-.41.17-.65.26a7.57,7.57,0,0,1-1.22.38,7.34,7.34,0,0,1-1.37.16,7.4,7.4,0,0,1-1.28-.12,4.83,4.83,0,0,1-.66-.17c-.28-.08-.55-.17-.78-.26s-.63-.28-.94-.42c-.64-.3-1.22-.6-1.87-.9A12.22,12.22,0,0,0,376.27,1a8.4,8.4,0,0,0-1.54-.41,7.4,7.4,0,0,0-.93-.07l-.47,0a7.9,7.9,0,0,0-.95.14,8,8,0,0,0-1.05.31c-.39.14-.69.29-1,.43l-1.12.53h0l-.69.32c-.26.12-.49.25-.77.37s-.41.17-.65.26a7.57,7.57,0,0,1-1.22.38,7.34,7.34,0,0,1-1.37.16,7.4,7.4,0,0,1-1.28-.12,4.83,4.83,0,0,1-.66-.17c-.28-.08-.55-.17-.78-.26s-.63-.28-.94-.42c-.64-.3-1.22-.6-1.87-.9A12.22,12.22,0,0,0,357.65,1a8.4,8.4,0,0,0-1.54-.41,7.4,7.4,0,0,0-.93-.07l-.47,0a7.9,7.9,0,0,0-.95.14,8,8,0,0,0-1.05.31c-.39.14-.69.29-1,.43l-1.12.53h0l-.69.32c-.26.12-.49.25-.77.37s-.41.17-.65.26a7.57,7.57,0,0,1-1.22.38,7.34,7.34,0,0,1-1.37.16,7.4,7.4,0,0,1-1.28-.12,4.83,4.83,0,0,1-.66-.17c-.28-.08-.55-.17-.78-.26s-.63-.28-.94-.42c-.64-.3-1.22-.6-1.87-.9A12.22,12.22,0,0,0,339,1a8.4,8.4,0,0,0-1.54-.41,7.4,7.4,0,0,0-.93-.07l-.47,0a7.9,7.9,0,0,0-.95.14,8,8,0,0,0-1.05.31c-.39.14-.69.29-1,.43L332,1.93h0l-.69.32c-.26.12-.49.25-.77.37s-.41.17-.65.26a7.57,7.57,0,0,1-1.22.38,7.34,7.34,0,0,1-1.37.16A7.4,7.4,0,0,1,326,3.3a4.83,4.83,0,0,1-.66-.17c-.28-.08-.55-.17-.78-.26s-.63-.28-.94-.42c-.64-.3-1.22-.6-1.87-.9A12.22,12.22,0,0,0,320.42,1a8.4,8.4,0,0,0-1.54-.41A7.4,7.4,0,0,0,318,.5l-.47,0a7.9,7.9,0,0,0-.95.14,8,8,0,0,0-1.05.31c-.39.14-.69.29-1,.43l-1.12.53h0l-.69.32c-.26.12-.49.25-.77.37s-.41.17-.65.26a7.57,7.57,0,0,1-1.22.38,7.34,7.34,0,0,1-1.37.16,7.4,7.4,0,0,1-1.28-.12,4.83,4.83,0,0,1-.66-.17c-.28-.08-.55-.17-.78-.26s-.63-.28-.94-.42c-.64-.3-1.22-.6-1.87-.9A12.22,12.22,0,0,0,301.81,1a8.4,8.4,0,0,0-1.54-.41,7.4,7.4,0,0,0-.93-.07l-.47,0a7.9,7.9,0,0,0-.95.14,8,8,0,0,0-1.05.31c-.39.14-.69.29-1,.43l-1.12.53h0l-.69.32c-.26.12-.49.25-.77.37s-.41.17-.65.26a7.57,7.57,0,0,1-1.22.38,7.34,7.34,0,0,1-1.37.16,7.4,7.4,0,0,1-1.28-.12,4.83,4.83,0,0,1-.66-.17c-.28-.08-.55-.17-.78-.26s-.63-.28-.94-.42c-.64-.3-1.22-.6-1.87-.9A12.22,12.22,0,0,0,283.2,1a8.4,8.4,0,0,0-1.54-.41,7.4,7.4,0,0,0-.93-.07l-.47,0a7.9,7.9,0,0,0-.95.14,8,8,0,0,0-1.05.31c-.39.14-.69.29-1,.43l-1.12.53h0l-.69.32c-.26.12-.49.25-.77.37s-.41.17-.65.26a7.57,7.57,0,0,1-1.22.38,7.34,7.34,0,0,1-1.37.16,7.4,7.4,0,0,1-1.28-.12,4.83,4.83,0,0,1-.66-.17c-.28-.08-.55-.17-.78-.26s-.63-.28-.94-.42c-.64-.3-1.22-.6-1.87-.9A12.22,12.22,0,0,0,264.58,1,8.4,8.4,0,0,0,263,.57a7.4,7.4,0,0,0-.93-.07l-.47,0a7.9,7.9,0,0,0-.95.14,8,8,0,0,0-1.05.31c-.39.14-.69.29-1,.43l-1.12.53h0l-.69.32c-.26.12-.49.25-.77.37s-.41.17-.65.26a7.57,7.57,0,0,1-1.22.38,7.34,7.34,0,0,1-1.37.16,7.4,7.4,0,0,1-1.28-.12,4.83,4.83,0,0,1-.66-.17c-.28-.08-.55-.17-.78-.26s-.63-.28-.94-.42c-.64-.3-1.22-.6-1.87-.9A12.22,12.22,0,0,0,246,1a8.4,8.4,0,0,0-1.54-.41,7.4,7.4,0,0,0-.93-.07l-.47,0a7.9,7.9,0,0,0-.95.14A8,8,0,0,0,241,1c-.39.14-.69.29-1,.43l-1.12.53h0l-.69.32c-.26.12-.49.25-.77.37s-.41.17-.65.26a7.57,7.57,0,0,1-1.22.38,7.34,7.34,0,0,1-1.37.16,7.4,7.4,0,0,1-1.28-.12,4.83,4.83,0,0,1-.66-.17c-.28-.08-.55-.17-.78-.26s-.63-.28-.94-.42c-.64-.3-1.22-.6-1.87-.9A12.22,12.22,0,0,0,227.35,1a8.4,8.4,0,0,0-1.54-.41,7.4,7.4,0,0,0-.93-.07l-.47,0a7.9,7.9,0,0,0-.95.14,8,8,0,0,0-1.05.31c-.39.14-.69.29-1,.43l-1.12.53h0l-.69.32c-.26.12-.49.25-.77.37s-.41.17-.65.26a7.57,7.57,0,0,1-1.22.38,7.34,7.34,0,0,1-1.37.16,7.4,7.4,0,0,1-1.28-.12,4.83,4.83,0,0,1-.66-.17c-.28-.08-.55-.17-.78-.26s-.63-.28-.94-.42c-.64-.3-1.22-.6-1.87-.9A12.22,12.22,0,0,0,208.74,1,8.4,8.4,0,0,0,207.2.57a7.4,7.4,0,0,0-.93-.07l-.47,0a7.9,7.9,0,0,0-.95.14,8,8,0,0,0-1.05.31c-.39.14-.69.29-1,.43l-1.12.53h0l-.69.32c-.26.12-.49.25-.77.37s-.41.17-.65.26a7.57,7.57,0,0,1-1.22.38,7.34,7.34,0,0,1-1.37.16,7.4,7.4,0,0,1-1.28-.12,4.83,4.83,0,0,1-.66-.17c-.28-.08-.55-.17-.78-.26s-.63-.28-.94-.42c-.64-.3-1.22-.6-1.87-.9A12.22,12.22,0,0,0,190.13,1a8.4,8.4,0,0,0-1.54-.41,7.4,7.4,0,0,0-.93-.07l-.47,0a7.9,7.9,0,0,0-.95.14,8,8,0,0,0-1.05.31c-.39.14-.69.29-1,.43l-1.12.53h0l-.69.32c-.26.12-.49.25-.77.37s-.41.17-.65.26a7.57,7.57,0,0,1-1.22.38,7.34,7.34,0,0,1-1.37.16,7.4,7.4,0,0,1-1.28-.12,4.83,4.83,0,0,1-.66-.17c-.28-.08-.55-.17-.78-.26s-.63-.28-.94-.42c-.64-.3-1.22-.6-1.87-.9A12.22,12.22,0,0,0,171.51,1,8.4,8.4,0,0,0,170,.57,7.4,7.4,0,0,0,169,.5l-.47,0a7.9,7.9,0,0,0-.95.14,8,8,0,0,0-1.05.31c-.39.14-.69.29-1,.43l-1.12.53h0l-.69.32c-.26.12-.49.25-.77.37s-.41.17-.65.26a7.57,7.57,0,0,1-1.22.38,7.34,7.34,0,0,1-1.37.16,7.4,7.4,0,0,1-1.28-.12,4.83,4.83,0,0,1-.66-.17c-.28-.08-.55-.17-.78-.26s-.63-.28-.94-.42c-.64-.3-1.22-.6-1.87-.9A12.22,12.22,0,0,0,152.9,1a8.4,8.4,0,0,0-1.54-.41,7.4,7.4,0,0,0-.93-.07l-.47,0a7.9,7.9,0,0,0-.95.14A8,8,0,0,0,148,1c-.39.14-.69.29-1,.43l-1.12.53h0l-.69.32c-.26.12-.49.25-.77.37s-.41.17-.65.26a7.57,7.57,0,0,1-1.22.38,7.34,7.34,0,0,1-1.37.16,7.4,7.4,0,0,1-1.28-.12,4.83,4.83,0,0,1-.66-.17c-.28-.08-.55-.17-.78-.26s-.63-.28-.94-.42c-.64-.3-1.22-.6-1.87-.9A12.22,12.22,0,0,0,134.28,1a8.4,8.4,0,0,0-1.54-.41,7.4,7.4,0,0,0-.93-.07l-.47,0a7.9,7.9,0,0,0-.95.14,8,8,0,0,0-1.05.31c-.39.14-.69.29-1,.43l-1.12.53h0l-.69.32c-.26.12-.49.25-.77.37s-.41.17-.65.26a7.57,7.57,0,0,1-1.22.38,7.34,7.34,0,0,1-1.37.16,7.4,7.4,0,0,1-1.28-.12,4.83,4.83,0,0,1-.66-.17c-.28-.08-.55-.17-.78-.26s-.63-.28-.94-.42c-.64-.3-1.22-.6-1.87-.9A12.22,12.22,0,0,0,115.67,1a8.4,8.4,0,0,0-1.54-.41,7.4,7.4,0,0,0-.93-.07l-.47,0a7.9,7.9,0,0,0-.95.14,8,8,0,0,0-1.05.31c-.39.14-.69.29-1,.43l-1.12.53h0l-.69.32c-.26.12-.49.25-.77.37s-.41.17-.65.26a7.57,7.57,0,0,1-1.22.38,7.34,7.34,0,0,1-1.37.16,7.4,7.4,0,0,1-1.28-.12,4.83,4.83,0,0,1-.66-.17c-.28-.08-.55-.17-.78-.26s-.63-.28-.94-.42c-.64-.3-1.22-.6-1.87-.9A12.22,12.22,0,0,0,97.05,1,8.4,8.4,0,0,0,95.52.57,7.4,7.4,0,0,0,94.59.5l-.47,0a7.9,7.9,0,0,0-.95.14A8,8,0,0,0,92.12,1c-.39.14-.69.29-1,.43L90,1.93h0l-.69.32c-.26.12-.49.25-.77.37s-.41.17-.65.26a7.57,7.57,0,0,1-1.22.38,7.34,7.34,0,0,1-1.37.16A7.4,7.4,0,0,1,84,3.3a4.83,4.83,0,0,1-.66-.17c-.28-.08-.55-.17-.78-.26s-.63-.28-.94-.42c-.64-.3-1.22-.6-1.87-.9A12.22,12.22,0,0,0,78.44,1,8.4,8.4,0,0,0,76.91.57,7.4,7.4,0,0,0,76,.5l-.47,0a7.9,7.9,0,0,0-.95.14A8,8,0,0,0,73.51,1c-.39.14-.69.29-1,.43l-1.12.53h0l-.69.32c-.26.12-.49.25-.77.37s-.41.17-.65.26A7.57,7.57,0,0,1,68,3.26a7.34,7.34,0,0,1-1.37.16,7.4,7.4,0,0,1-1.28-.12,4.83,4.83,0,0,1-.66-.17c-.28-.08-.55-.17-.78-.26s-.63-.28-.94-.42c-.64-.3-1.22-.6-1.87-.9A12.22,12.22,0,0,0,59.82,1,8.4,8.4,0,0,0,58.29.58,7.4,7.4,0,0,0,57.36.5l-.47,0a7.9,7.9,0,0,0-.95.14A8,8,0,0,0,54.89,1c-.39.14-.69.29-1,.43l-1.12.53h0l-.69.32c-.26.12-.49.25-.77.37s-.41.17-.65.26a7.57,7.57,0,0,1-1.22.38,7.34,7.34,0,0,1-1.37.16,7.4,7.4,0,0,1-1.28-.12,4.83,4.83,0,0,1-.66-.17c-.28-.08-.55-.17-.78-.26s-.63-.28-.94-.42c-.64-.3-1.22-.6-1.87-.9A12.22,12.22,0,0,0,41.21,1,8.4,8.4,0,0,0,39.67.57,7.4,7.4,0,0,0,38.75.5l-.47,0a7.9,7.9,0,0,0-.95.14A8,8,0,0,0,36.28,1c-.39.14-.69.29-1,.43l-1.12.53h0l-.69.32c-.26.12-.49.25-.77.37s-.41.17-.65.26a7.57,7.57,0,0,1-1.22.38,7.34,7.34,0,0,1-1.37.16,7.4,7.4,0,0,1-1.28-.12,4.83,4.83,0,0,1-.66-.17C27.22,3,27,3,26.72,2.86s-.63-.28-.94-.42c-.64-.3-1.22-.6-1.87-.9A12.22,12.22,0,0,0,22.6,1,8.4,8.4,0,0,0,21.06.57,7.4,7.4,0,0,0,20.13.5l-.47,0a7.9,7.9,0,0,0-.95.14A8,8,0,0,0,17.66,1c-.39.14-.69.29-1,.43l-1.12.53h0l-.69.32c-.26.12-.49.25-.77.37s-.41.17-.65.26a7.57,7.57,0,0,1-1.22.38,7.34,7.34,0,0,1-1.37.16A7.4,7.4,0,0,1,9.55,3.3a4.83,4.83,0,0,1-.66-.17C8.61,3,8.34,3,8.11,2.86s-.63-.28-.94-.42c-.64-.3-1.22-.6-1.87-.9A12.22,12.22,0,0,0,4,1,8.4,8.4,0,0,0,2.45.57,7.4,7.4,0,0,0,1.52.5L1,.52A7.9,7.9,0,0,0,.1.66"/>
    </g>
  </g>
</svg>
